<svg width="170" height="50" viewBox="0 0 170 50" fill="none" xmlns="http://www.w3.org/2000/svg">
<g clip-path="url(#clip0_66_159)">
<path d="M48.8818 35.662H49.4126C50.6876 35.662 51.2189 35.77 51.8559 35.9858C52.9185 36.4154 53.4496 37.3847 53.4496 38.5694C53.4496 40.1856 52.3871 41.3698 50.2628 41.8011L50.0503 41.9093C51.4312 42.4467 52.2811 43.524 52.2811 44.8172C52.2811 46.2167 51.3247 47.4013 49.7312 47.6171C49.2001 47.7251 48.7752 47.7251 47.9253 47.7251H42.6138L42.7204 47.4013C43.6764 47.2931 43.8889 47.0785 44.3135 45.8941L44.4198 45.5703V45.3548L46.7569 37.924V37.7087L46.8634 37.3847C46.9693 37.0631 47.0759 36.7393 47.0759 36.6313C47.0759 36.2005 46.6509 35.9859 45.9073 35.9859L46.0133 35.6621L48.8818 35.662ZM45.5884 47.2929H47.076C48.6691 47.2929 49.3069 47.1863 49.838 46.5395C50.3687 46.0012 50.6877 45.0321 50.6877 44.1705C50.6877 43.2013 50.2628 42.4467 49.5192 42.1239C49.0943 42.0173 48.5628 41.9093 47.8196 41.9093H47.2884L45.5884 47.2929ZM48.4566 41.5858H48.7754C49.6255 41.5858 50.1563 41.4778 50.6877 41.0476C51.4313 40.4003 51.9621 39.3241 51.9621 38.2468C51.9621 36.9551 51.1123 36.0938 50.0503 36.0938C49.5191 36.0938 49.2001 36.2003 48.9876 36.7392C48.8817 36.9549 48.8817 37.0629 48.669 37.6003C48.5627 37.9239 48.4565 38.1389 48.4565 38.4615L47.3946 41.6929H48.4565V41.5858H48.4566ZM55.0431 47.8329C54.0871 47.8329 53.4498 47.0784 53.4498 46.0012C53.4498 44.4934 54.4058 42.4467 55.7865 40.9399C56.7425 39.8629 57.4865 39.3241 58.2301 39.3241C58.9733 39.3241 59.3982 39.7549 59.3982 40.4003C59.3982 40.8323 59.1858 41.3698 58.8675 41.6931C58.3367 42.3389 57.3803 42.9865 56.1056 43.7401C55.6806 43.9559 55.5741 44.0627 55.3616 44.1705C55.1495 44.8171 54.937 45.894 54.937 46.3238C54.937 46.8638 55.2553 47.1863 55.5741 47.1863C56.2115 47.1863 56.955 46.5395 57.8052 45.2475L57.9112 45.0322L58.1242 45.1398C57.1674 46.8638 55.9988 47.8329 55.0431 47.8329ZM57.1674 42.4467C58.1241 41.4778 58.5487 40.724 58.5487 40.0776C58.5487 39.7548 58.3366 39.5391 58.1241 39.5391C57.6986 39.5391 57.1674 39.9708 56.6366 40.9398C56.1055 41.8009 55.7864 42.5547 55.4681 43.6319C55.9988 43.4159 56.6366 42.9865 57.1674 42.4467ZM60.7795 46.1092C60.7795 46.1092 60.5674 46.6475 60.5674 46.7555C60.5674 46.8638 60.6732 46.8638 60.6732 46.8638C60.8857 46.8638 61.6292 46.1092 62.4791 44.7093L62.5851 44.6013L62.7975 44.8171L62.6916 44.9246C61.5234 46.7555 60.4608 47.8329 59.5048 47.8329C59.1858 47.8329 58.9733 47.6169 58.9733 47.1863C58.9733 46.9713 59.0798 46.5395 59.1858 46.1092L59.7172 44.7094L62.7975 36.9551C63.01 36.4155 63.01 36.3085 63.01 36.2005C63.01 35.9859 62.9041 35.9859 62.2668 35.8779H62.0543L62.1606 35.6621H64.7105L60.7795 46.1092ZM69.1716 40.9398C69.1716 42.6627 67.7906 44.2775 66.1967 44.2775C65.9843 44.2775 65.8784 44.2775 65.666 44.1705L65.5597 44.2775C65.1351 44.6013 64.9227 44.8171 64.9227 45.0321C64.9227 45.2474 65.1352 45.3547 65.9843 45.6782L66.9403 46.0011C68.1096 46.3236 68.5345 46.6474 68.8528 47.0782C69.0656 47.2928 69.1716 47.6168 69.1716 47.9406C69.1716 49.1246 67.8965 49.8791 65.8784 49.8791C63.9667 49.8791 62.6916 49.3393 62.6916 48.4783C62.6916 47.9407 63.1165 47.4012 63.9667 46.9712L64.6037 46.6474C64.7103 46.6474 64.7103 46.5394 64.8162 46.5394C64.285 46.2166 64.0726 46.0011 64.0726 45.5702C64.0726 45.0321 64.4972 44.6013 65.3477 43.9558C64.8162 43.5238 64.4971 42.8783 64.4971 42.1238C64.4971 40.5082 65.9843 39.1081 67.5781 39.1081C68.2155 39.1081 68.6403 39.3239 68.9591 39.7547C69.2777 39.6467 69.2777 39.6467 69.7027 39.4309C70.0213 39.2161 70.3397 39.1081 70.6587 39.1081C70.9775 39.1081 71.2962 39.3239 71.2962 39.6467C71.2962 39.9707 71.0837 40.1855 70.6587 40.1855C70.4463 40.1855 70.3398 40.1855 70.0213 40.0775C69.8089 39.9707 69.7027 39.9707 69.5967 39.9707C69.4902 39.9707 69.3839 39.9707 69.1714 40.0775L69.1716 40.9398ZM64.9227 46.9713C63.86 47.4012 63.6477 47.7249 63.6477 48.1558C63.6477 48.9099 64.4971 49.3394 65.8784 49.3394C66.5158 49.3394 67.2594 49.2316 67.7906 49.0166C68.322 48.802 68.5345 48.5862 68.5345 48.2625C68.5345 47.8331 68.2154 47.6171 67.5781 47.4013L66.622 47.0785L65.5597 46.7556H65.3475C65.2411 46.7555 65.1352 46.8638 64.9227 46.9713ZM67.5781 39.5391C67.1535 39.5391 66.728 39.8628 66.4096 40.4002C65.8784 41.2626 65.4535 42.4467 65.4535 43.2013C65.4535 43.7401 65.666 44.0627 65.9843 44.0627C66.3033 44.0627 66.7279 43.7401 67.1535 43.0931C67.6843 42.2319 68.1096 41.1548 68.1096 40.4002C68.2155 39.8628 68.003 39.5391 67.5781 39.5391ZM72.3584 46.8638C71.7213 47.5092 71.1899 47.8329 70.7653 47.8329C70.4463 47.8329 70.2338 47.6169 70.2338 47.1863C70.2338 46.9713 70.3398 46.4318 70.5528 46.0012L70.6587 45.6783L70.8712 45.2475L72.6774 40.9399L72.7833 40.7241C72.8896 40.6166 72.8896 40.5084 72.8896 40.4003C72.8896 40.2938 72.7833 40.2938 72.7833 40.2938C72.6774 40.2938 72.5709 40.4003 72.1463 40.8323C71.7213 41.2627 71.296 41.9093 70.9774 42.3391L70.7653 42.232C71.8272 40.5085 73.2082 39.2163 73.9521 39.2163C74.2704 39.2163 74.4829 39.4312 74.4829 39.7549C74.4829 39.9709 74.4829 40.0778 74.3766 40.5084C74.2703 40.7241 74.1645 41.1549 73.952 41.4778C73.8455 41.6931 73.8455 41.9093 73.7388 41.9093L72.146 46.2167L71.8269 46.3238C71.721 46.5395 71.721 46.5395 71.721 46.6475C71.721 46.7555 71.721 46.7555 71.8269 46.7555C71.9335 46.7555 72.146 46.6475 72.6772 46.0012C72.9958 45.5704 73.2079 45.2475 73.4204 45.0322L73.6329 45.1398C73.4208 45.6783 72.8896 46.3238 72.3584 46.8638ZM74.0582 37.4928C73.6332 37.4928 73.2083 37.0629 73.2083 36.6312C73.2083 36.0938 73.6332 35.77 74.0582 35.77C74.5893 35.77 74.9083 36.2003 74.9083 36.6312C74.9083 37.0629 74.483 37.4928 74.0582 37.4928ZM80.8568 44.0627C80.8568 44.1705 80.7508 44.2785 80.6443 44.4933L80.2194 45.6782C80.0069 46.2166 79.9006 46.5394 79.9006 46.7554C79.9006 46.8636 79.9006 46.8636 80.0069 46.8636C80.1132 46.8636 80.5377 46.5394 80.8568 46.1091C81.0692 45.7862 81.2821 45.5702 81.6004 45.1396L81.8128 45.2474C81.6004 45.6782 81.0692 46.3236 80.6443 46.7554C80.0069 47.5091 79.4758 47.8328 78.945 47.8328C78.6259 47.8328 78.4135 47.6168 78.4135 47.2928C78.4135 47.1862 78.4135 46.9712 78.626 46.4316C78.626 46.4316 79.1571 44.8169 79.1571 44.7092V44.6012C78.7325 45.1395 78.0952 46.0009 77.7762 46.3236C76.926 47.1862 75.9703 47.8328 75.4392 47.8328C75.1208 47.8328 74.9083 47.5091 74.9083 47.0782C74.9083 46.6474 75.0142 46.2166 75.3332 45.4625L75.5457 44.9246L76.6077 42.3388L76.8202 41.9092L77.1386 41.2626C77.3516 40.724 77.3516 40.6165 77.3516 40.4002C77.3516 40.2936 77.2451 40.1856 77.2451 40.1856C77.1386 40.1856 76.926 40.2936 76.7139 40.6165C76.3956 40.9398 76.0768 41.3696 75.7578 41.8009L75.5457 42.1238L75.4392 42.2318L75.2267 42.1238C76.1828 40.4002 77.4575 39.1081 78.2011 39.1081C78.5202 39.1081 78.7325 39.3239 78.7325 39.8627C78.7325 40.2935 78.5201 40.9396 78.2011 41.9092L78.0951 42.2318L76.9259 45.2474L76.8199 45.6782L76.6075 46.2166C76.5012 46.5394 76.5012 46.5394 76.5012 46.6474C76.5012 46.7554 76.6075 46.8636 76.7136 46.8636C77.4572 46.8636 79.4757 44.1703 80.6442 41.4776L81.6003 39.3239H82.875L80.8568 44.0627ZM94.3482 45.0321C93.9233 45.6782 93.2859 46.3238 92.7545 46.9712C92.1168 47.5091 91.5866 47.8328 91.1608 47.8328C90.8424 47.8328 90.737 47.6168 90.737 47.2928C90.737 47.0782 90.8424 46.7554 90.949 46.4316C91.0542 46.3236 91.0542 46.2166 91.2673 45.7862C91.3739 45.5702 91.3739 45.4625 91.3739 45.4625L93.1795 41.4776L93.286 41.1548C93.4985 40.724 93.4985 40.6165 93.4985 40.5082C93.4985 40.2936 93.3923 40.1856 93.1795 40.1856C92.9677 40.1856 92.6494 40.4002 92.1169 40.9398C90.5241 42.6627 89.2491 44.4933 88.0809 47.0783C87.8681 47.5092 87.8681 47.5092 87.7626 47.7249H86.4872C86.6999 47.2929 86.912 46.8638 87.5498 45.4626C88.0809 44.3856 88.293 43.6319 88.6124 42.8785C89.1424 41.2627 89.3553 40.724 89.3553 40.4003C89.3553 40.1858 89.2491 40.0778 89.1424 40.0778C88.9307 40.0778 88.5057 40.4003 87.9747 41.0476C87.0183 42.1239 86.2744 43.2014 85.4247 44.7094C85.3189 45.0322 85.1065 45.4626 84.6816 46.1092C84.2563 46.8638 84.1504 47.2931 83.938 47.6169H82.6629L84.044 44.2785C84.044 44.1705 84.1505 44.0627 84.2564 43.7401C84.6817 42.6627 85.1067 41.6931 85.319 41.0475C85.4248 40.6165 85.5315 40.4002 85.5315 40.2936C85.5315 40.1856 85.5315 40.1856 85.4248 40.1856C85.1067 40.1856 84.363 41.1548 83.5127 42.6627L83.3002 42.5547V42.4467C84.3628 40.5082 85.5314 39.1082 86.2743 39.1082C86.5936 39.1082 86.8064 39.4311 86.8064 39.8628C86.8064 40.0776 86.8064 40.2936 86.6998 40.724C86.5936 41.0475 86.3809 41.6929 86.2743 42.1238L86.0625 42.7703C86.0625 42.7703 85.956 42.9863 85.956 43.2012C86.0625 42.9863 86.1681 42.8783 86.1681 42.8783L86.8064 42.1238C87.3365 41.2626 88.5057 40.0775 89.037 39.6467C89.4619 39.3239 89.6746 39.2161 89.9929 39.2161C90.4175 39.2161 90.737 39.5389 90.737 39.9707C90.737 40.1855 90.6307 40.5081 90.5241 40.9396C90.4175 41.3695 90.205 42.1236 89.8864 42.7703C89.6746 43.5238 89.7808 43.2012 89.6746 43.5238L89.9929 43.0929C90.949 41.5855 91.5866 41.0474 92.5429 40.1855C93.1795 39.6467 93.7106 39.3239 94.1353 39.3239C94.6668 39.3239 94.9851 39.6467 94.9851 40.0775C94.9851 40.4001 94.8796 40.8321 94.6668 41.1547L94.4547 41.6928C94.4547 41.8008 94.3484 41.9091 94.3484 41.9091L92.436 45.8941L92.3299 46.2167C92.1167 46.5395 92.2232 46.4318 92.2232 46.5395C92.2232 46.6475 92.3299 46.6475 92.3299 46.6475C92.5427 46.6475 93.0728 46.2167 94.0288 44.9246L94.1351 44.8171L94.3482 45.0321ZM102.528 45.1398C102.422 45.4626 102.316 45.7864 102.316 45.8941L102.103 46.5395C102.103 46.6475 101.996 46.7555 101.996 46.8638C101.996 47.1863 102.316 47.1863 103.166 47.2929L103.059 47.6169H99.0219L99.1285 47.2929C100.191 47.1863 100.297 47.0784 101.04 44.9246L103.484 37.7086L102.846 37.9239C102.528 38.0319 101.678 38.1389 101.678 38.1389V37.9239C102.846 37.4928 104.015 36.8472 105.291 36.0936L105.502 36.3082L102.528 45.1398ZM108.158 43.7401C107.907 43.7412 107.658 43.6917 107.425 43.5946C107.193 43.4975 106.982 43.3547 106.804 43.1745C106.626 42.9942 106.485 42.78 106.39 42.5443C106.294 42.3086 106.245 42.056 106.246 41.8011C106.246 40.6166 106.99 38.7856 108.052 37.7087C108.901 36.8473 109.751 36.3085 110.496 36.3085C111.77 36.3085 112.619 37.4929 112.619 39.2163C112.619 42.7706 109.538 46.5396 105.396 47.9408L105.29 47.6171C107.202 46.6476 108.689 45.3548 109.538 43.524C109.008 43.7401 108.689 43.7401 108.158 43.7401ZM110.601 36.8472C110.071 36.8472 109.538 37.3846 108.901 38.3547C108.265 39.4309 107.733 41.1548 107.733 42.2318C107.733 42.9863 108.052 43.4158 108.689 43.4158C109.326 43.4158 109.858 42.9863 110.389 41.9091C111.026 40.6163 111.451 39.108 111.451 38.0318C111.451 37.2778 111.027 36.8472 110.601 36.8472ZM115.913 46.4318H116.338C117.399 46.4318 117.506 46.3238 117.719 45.6783L118.038 45.7863L117.294 47.8329H111.663C111.982 46.9713 112.301 46.3238 112.832 45.4626C113.682 44.2776 114.425 43.416 116.443 41.5858C118.144 40.0778 118.675 39.324 118.675 38.3541C118.675 37.4929 118.144 37.0629 117.294 37.0629C116.232 37.0629 115.169 37.8161 114.213 39.1082L113.788 38.8936C114.851 37.2779 116.338 36.3083 117.932 36.3083C119.312 36.3083 120.162 37.0629 120.162 38.1391C120.162 38.7856 119.95 39.4311 119.524 39.9708C118.994 40.6165 118.568 40.9398 116.763 42.2319C114.32 44.0628 113.469 45.0322 112.939 46.3238H115.913V46.4318ZM123.03 40.724C123.349 40.6165 123.668 40.5082 123.986 40.5082C125.261 40.5082 126.11 41.3696 126.11 42.5547C126.11 43.7401 125.367 45.5703 124.198 46.7555C123.349 47.6169 122.605 47.9407 121.862 47.9407C120.587 47.9407 119.844 46.7555 119.844 44.9246C119.844 42.7703 121.012 40.5082 122.924 38.8935C124.172 37.8584 125.57 37.0227 127.067 36.4154L127.279 36.7392C125.367 37.924 124.093 39.0014 123.03 40.724ZM123.775 41.0475C123.137 41.0475 122.606 41.5856 122.181 42.5547C121.437 43.9559 121.012 45.2475 121.012 46.2167C121.012 46.9713 121.33 47.5092 121.862 47.5092C122.393 47.5092 123.03 46.8638 123.562 45.7862C124.198 44.6013 124.731 43.0929 124.731 42.3388C124.837 41.5858 124.305 41.0475 123.775 41.0475ZM49.7313 0.120819C58.1241 0.120819 64.6037 5.50564 64.6037 14.2301C64.6037 22.63 58.4424 29.6306 49.5192 29.6306C39.3213 29.6306 34.8593 21.6607 34.8593 14.8756C34.8593 8.73635 39.4271 0.120819 49.7313 0.120819ZM50.4753 27.9076C53.7679 27.9076 60.3542 25.7536 60.3542 15.3073C60.3542 7.22929 55.2552 1.73647 49.4126 1.73647C43.2516 1.73647 39.0022 5.93647 38.8962 13.7985C39.0022 21.9845 43.7828 27.9076 50.4753 27.9076ZM73.3145 26.292C73.5266 24.6761 73.5266 21.7682 73.5266 18.1072V11.5373C73.5266 5.61364 73.5266 4.64435 73.4206 3.46023V0.767172C73.8456 0.767172 78.2009 0.65929 80.4317 0.65929C84.15 0.65929 91.1605 0.336584 95.6236 4.96705C97.5353 6.90553 99.2346 10.0291 99.2346 14.5528C99.2346 19.292 97.3224 22.9536 95.1976 25.1079C93.6048 26.8308 89.9927 29.4155 83.6185 29.4155C80.4317 29.4155 73.5265 28.9847 73.2082 28.9847L73.3145 26.292ZM77.245 15.63C77.245 19.614 77.245 23.0614 77.3515 23.8146C77.3515 24.7839 77.564 25.9692 77.8824 26.4C78.3077 27.1543 79.2633 27.9075 83.7246 27.9075C87.2302 27.9075 89.8863 26.9386 92.1167 24.6761C94.0288 22.7375 95.0915 19.1844 95.0915 15.7372C95.0915 10.9985 93.0729 7.87482 91.5865 6.26C87.9745 2.38317 84.2561 2.16729 79.7948 2.16729C79.0508 2.16729 78.0951 2.27529 77.7761 2.38317C77.4574 2.49094 77.3515 2.706 77.3515 3.13635V15.63H77.245ZM107.839 26.292C108.052 24.6761 108.052 21.7682 108.052 18.1072V11.5373C108.052 5.61364 108.052 4.64435 107.945 3.46023L107.733 0.65929C108.265 0.65929 109.221 0.767172 109.964 0.767172C110.496 0.767172 111.557 0.65929 111.982 0.65929L111.876 3.46023C111.77 4.64435 111.77 5.72176 111.77 11.5373V18.1073C111.77 21.7684 111.77 24.6762 111.982 26.2921L112.196 28.9849C111.345 28.9849 110.92 28.8774 109.858 28.8774C108.902 28.8774 108.265 29.0929 107.626 28.9849L107.839 26.292ZM22.218 19.5072V14.9836C22.8551 14.9836 23.3862 15.0915 24.1298 15.0915C24.6614 15.0915 25.5108 14.9836 26.1484 14.9836V17.7835C26.0422 18.9685 26.0422 20.1538 26.0422 21.6607V25.8613C26.0422 27.5842 26.0422 27.5842 25.5107 27.9078C23.1736 29.2 19.4557 29.6307 17.3311 29.6307C13.8252 29.6307 8.30157 28.9851 4.58362 25.4311C2.45868 23.2765 0.122078 19.5072 0.122078 14.8756C0.122078 8.84423 3.09679 4.64435 6.38957 2.49082C9.68304 0.336584 13.8252 0.120819 16.6941 0.120819C19.0312 0.120819 21.7931 0.65929 22.5368 0.767172C23.2804 0.982113 24.6614 1.09011 25.5108 1.09011C25.8299 1.09011 25.9361 1.306 25.9361 1.41364C25.9361 1.95141 25.724 1.6287 25.724 5.50553C25.724 5.93635 25.2983 5.72164 24.8734 5.29082C24.8734 5.29082 24.3423 4.85917 24.0238 4.64423C22.7491 3.46011 20.1994 1.73635 15.4193 1.73635C13.0822 1.73635 10.5325 1.95141 7.98293 3.99788C5.8581 5.72164 4.26532 9.168 4.26532 13.5835C4.26532 18.8607 6.92069 22.7376 8.19586 24.0307C11.1699 26.9386 14.0385 27.7999 17.5437 27.9076C18.925 27.9076 20.518 27.7999 21.3683 27.2611C22.0057 26.9387 22.218 26.5083 22.218 25.8613V19.5072ZM142.577 0.65929C142.789 0.65929 143.745 0.767172 144.171 0.767172H145.551L143.745 5.18282C143.321 6.26 141.409 10.6756 139.39 15.4142C137.052 20.9071 135.354 25 134.504 26.8309C133.441 29.0929 133.228 29.6306 132.91 29.6306C132.485 29.6306 132.166 29.0929 131.529 27.2611L122.286 4.21376L120.906 0.65929C121.543 0.65929 122.818 0.767172 123.242 0.767172C123.668 0.767172 125.154 0.65929 125.58 0.65929C125.58 0.65929 126.536 3.78294 127.066 5.29094L133.866 23.3841C135.99 18.3228 140.77 6.368 141.514 3.67517C141.833 3.0287 142.577 0.65929 142.577 0.65929ZM165.309 27.4771L162.123 18.8608C162.017 18.7528 162.017 18.6447 161.805 18.6447H153.837C153.625 18.6447 153.518 18.7528 153.412 18.9685L151.288 24.892C150.969 25.8613 149.8 28.9849 149.8 28.9849H148.631C148.208 28.9849 147.569 29.0929 147.145 28.9849L148.738 24.892L157.449 1.62882C157.874 0.336584 158.192 0.120819 158.405 0.120819C158.617 0.120819 158.937 0.444466 159.361 1.52176C159.893 2.92082 165.841 18.3229 168.071 24.0307L169.878 28.9848C169.347 28.9848 168.39 28.9848 165.735 28.8773L165.309 27.4771ZM161.273 16.922C161.486 16.922 161.486 16.8144 161.379 16.7062L157.981 6.5827C157.874 6.25988 157.768 6.25988 157.555 6.5827L154.262 16.7062C154.155 16.922 154.262 16.922 154.368 16.922H161.273Z" fill="#CFB56A"/>
</g>
<defs>
<clipPath id="clip0_66_159">
<rect width="170" height="50" fill="white"/>
</clipPath>
</defs>
</svg>
