<svg width="9" height="12" viewBox="0 0 9 12" fill="none" xmlns="http://www.w3.org/2000/svg">
<path d="M3.87268 1.14762C2.16202 1.14762 0.771423 2.48704 0.771423 4.64652V11.9996H1.69528V4.65563C1.69528 2.78775 2.82966 1.71259 4.23815 1.71259C5.64719 1.71259 6.72653 2.79685 6.72653 4.25469H6.90927C6.90927 2.45974 5.55582 1.14762 3.86333 1.14762H3.87268Z" fill="#003281"/>
<path d="M3.8725 0.583114C5.89414 0.583114 7.5404 2.04101 7.5404 4.64693V12H8.46454V4.58311C8.46454 1.68564 6.53426 0 4.30237 0C2.71995 0 1.33844 0.883827 0.652466 2.17769L0.798818 2.25965C1.44852 1.2483 2.59171 0.583114 3.89066 0.583114H3.8725Z" fill="#003281"/>
</svg>
