<svg width="151" height="75" viewBox="0 0 151 75" fill="none" xmlns="http://www.w3.org/2000/svg">
<path d="M99.035 26.2292L98.9139 25.6111C91.1648 26.9678 83.2053 27.6613 75.0783 27.6613C66.9513 27.6613 58.991 26.9528 51.2426 25.6111L51.1215 26.2292C58.8246 27.8874 66.8454 28.7616 75.0783 28.7616C83.3109 28.7616 91.3169 27.8874 99.035 26.2141V26.2292Z" fill="#003281"/>
<path d="M109.023 29.3195L108.902 28.7013C97.9149 30.7364 86.6254 31.8067 75.0628 31.8067C63.501 31.8067 52.1961 30.7364 41.2394 28.7013L41.1184 29.3195C52.0448 31.671 63.4253 32.9071 75.0783 32.9071C86.7311 32.9071 98.0816 31.671 109.038 29.3195H109.023Z" fill="#003281"/>
<path d="M89.4092 23.2445L89.3035 22.6264C84.6277 23.2144 79.8908 23.5159 75.0628 23.5159C70.2349 23.5159 65.4983 23.2144 60.822 22.6264L60.716 23.2445C65.3318 24.149 70.1447 24.6162 75.0473 24.6162C79.9509 24.6162 84.7488 24.149 89.3791 23.2445H89.4092Z" fill="#003281"/>
<path d="M73.8527 1.89928C71.0226 1.89928 68.722 4.11522 68.722 7.68786V19.8528H70.2504V7.70292C70.2504 4.61271 72.1271 2.83396 74.4573 2.83396C76.7884 2.83396 78.5741 4.62777 78.5741 7.03962H78.8764C78.8764 4.07005 76.6373 1.89928 73.8372 1.89928H73.8527Z" fill="#003281"/>
<path d="M73.8526 0.964703C77.1972 0.964703 79.9208 3.37664 79.9208 7.68787V19.8528H81.4497V7.58229C81.4497 2.78871 78.2562 0 74.5638 0C71.9459 0 69.6603 1.4622 68.5254 3.60276L68.7675 3.73836C69.8424 2.06518 71.7337 0.964703 73.8827 0.964703H73.8526Z" fill="#003281"/>
<path d="M79.043 67.7739H78.3774L74.9117 72.2057V72.6881H77.9384V74.6025H79.0275V72.6881H80.1175V71.9947H79.0275V67.7588L79.043 67.7739ZM77.953 72.0097H75.4717L77.953 68.7839V72.0097Z" fill="#003281"/>
<path d="M86.6701 70.7586C87.3513 70.4873 88.1835 70.0501 88.1835 69.2964C88.1835 68.3317 86.9879 67.8644 86.0801 67.8644C84.93 67.8644 83.6889 68.4071 83.6889 69.5225C83.6889 70.4119 84.2944 70.8039 85.0966 71.1807C84.2789 71.6028 83.5377 72.055 83.5377 73.0047C83.5377 74.1805 84.6577 74.6931 85.7022 74.6931C87.1846 74.6931 88.4257 74.0599 88.4257 72.7785C88.4257 71.7234 87.6845 71.1958 86.6701 70.7888V70.7586ZM84.6878 69.2361C84.6878 68.4825 85.2933 68.1206 86.0955 68.1206C86.8522 68.1206 87.3813 68.5126 87.3813 69.2361C87.3813 69.9145 87.0635 70.3366 86.4589 70.6832C86.0054 70.3366 84.6878 70.0652 84.6878 69.2361ZM85.8379 74.4066C84.93 74.4066 84.3855 73.8338 84.3855 73.0198C84.3855 72.2058 84.6577 71.7234 85.3234 71.2712C86.2012 71.6631 87.3813 71.9495 87.3813 73.0198C87.3813 73.8338 86.7457 74.4066 85.8379 74.4066Z" fill="#003281"/>
<path d="M63.4404 73.9091V67.8644H63.2588C63.0016 68.0904 62.3659 68.6934 61.246 68.8894V69.1005C61.8665 69.1457 62.1692 69.1457 62.26 69.3115C62.3205 69.417 62.3508 69.613 62.3508 69.9295V73.9091C62.3508 74.3313 62.1086 74.3915 61.5487 74.3915V74.5875H64.1971V74.3915C63.6068 74.3915 63.4555 74.3313 63.4555 73.9091H63.4404Z" fill="#003281"/>
<path d="M68.8584 67.9246C68.6314 67.9246 68.5557 67.8945 68.5557 67.6533H68.3741L67.693 69.5376H67.9353L68.0412 69.2512C68.1168 69.0402 68.2379 68.8894 68.4649 68.8894H71.4004L69.2519 73.1856C68.8584 73.9694 68.5708 74.5422 68.5708 74.5875C68.5708 74.7837 68.8735 74.7837 69.0249 74.7837C69.4486 74.7837 69.6147 74.6176 69.7359 74.3161L72.1571 68.2261V67.9548H69.7213C69.4486 67.9548 69.1611 67.9548 68.8735 67.9397L68.8584 67.9246Z" fill="#003281"/>
<path d="M66.331 60.9302H1.52861V61.5495H66.331V60.9302Z" fill="#003281"/>
<path d="M150.156 60.9302H73.3983V61.5495H150.156V60.9302Z" fill="#003281"/>
<path d="M55.6616 52.4585C55.6616 55.2472 57.7046 57.2671 60.7011 57.2671C63.4857 57.2671 65.7406 55.2171 65.7406 52.4585C65.7406 49.5642 63.6976 47.6497 60.7011 47.6497C57.7046 47.6497 55.6616 49.6697 55.6616 52.4585ZM63.5916 52.4585C63.5916 54.8251 62.608 56.7546 60.7011 56.7546C58.7942 56.7546 57.8105 54.8402 57.8105 52.4585C57.8105 50.0767 58.8093 48.1623 60.7011 48.1623C62.7593 48.1623 63.5916 50.0617 63.5916 52.4585Z" fill="#003281"/>
<path d="M100.594 42.4039V42.8562C101.532 43.0069 102.334 42.7958 102.334 43.8812V55.6844C102.334 56.5436 101.395 56.5436 100.594 56.5888V57.0411C102.364 57.0411 104.211 57.1315 106.057 57.1315C107.555 57.1315 109.447 57.0259 110.779 56.3175C112.398 55.4733 112.988 54.3276 112.988 53.0312C112.988 50.9359 111.414 49.4285 109.174 49.1723C110.976 48.6899 111.974 47.5593 111.974 45.8257C111.974 44.6952 111.293 43.5345 110.173 43.022C108.75 42.3889 107.298 42.3436 105.724 42.3587C103.969 42.3889 102.273 42.3889 100.594 42.4039ZM110.551 53.1368C110.551 55.3226 109.265 56.5285 106.571 56.5285C105.421 56.5285 104.65 56.3325 104.65 55.2321V49.8054H105.633C108.236 49.8054 110.551 50.0315 110.551 53.1368ZM109.689 46.0067C109.689 48.3432 107.858 49.2024 105.754 49.2024H104.65V42.9616C104.861 42.9616 105.209 42.9616 105.406 42.9616C108.871 42.9616 109.689 44.3485 109.689 46.0067Z" fill="#003281"/>
<path d="M120.722 57.2671C123.506 57.2671 125.761 55.2171 125.761 52.4585C125.761 49.5642 123.717 47.6497 120.722 47.6497C117.725 47.6497 115.681 49.6697 115.681 52.4585C115.681 55.2472 117.725 57.2671 120.722 57.2671ZM120.722 48.1623C122.78 48.1623 123.627 50.0617 123.627 52.4585C123.627 54.8552 122.643 56.7546 120.722 56.7546C118.799 56.7546 117.83 54.8402 117.83 52.4585C117.83 50.0767 118.829 48.1623 120.722 48.1623Z" fill="#003281"/>
<path d="M7.46091 57.3274H8.23273L12.7728 45.5845C13.3025 44.1977 13.8473 42.8562 15.4212 42.8562V42.4039H10.4725V42.8562C11.0022 42.8562 11.7286 42.8109 12.1069 43.5194C12.3188 43.8962 12.2583 44.7103 11.6983 46.2026L8.71698 54.2222H8.67163L4.99413 45.0268C4.94869 44.9062 4.67633 44.1374 4.78223 43.7154C4.93357 43.0521 5.73562 42.8712 6.52264 42.8712V42.419H0V42.8712C0.438904 42.8712 1.07449 43.022 1.48308 43.4139C1.89175 43.8058 2.19443 44.5896 2.6938 45.7655L7.46091 57.3425V57.3274Z" fill="#003281"/>
<path d="M27.0591 56.634C26.0754 56.5737 25.7727 56.5737 25.7727 55.4733V42.223C24.7437 42.5244 23.4573 42.9466 22.3677 43.2028V43.4591C22.8519 43.4742 23.1697 43.6099 23.3816 43.7757C23.7145 44.0772 23.7145 44.5896 23.7145 45.1172V55.4883C23.7145 56.5888 23.4119 56.5888 22.3526 56.649V57.0561H27.0743V56.649L27.0591 56.634Z" fill="#003281"/>
<path d="M33.7934 56.634C32.8097 56.5737 32.507 56.5737 32.507 55.4733V42.223C31.478 42.5244 30.1916 42.9466 29.102 43.2028V43.4591C29.6013 43.4742 29.904 43.6099 30.1159 43.7757C30.4488 44.0772 30.4488 44.5896 30.4488 45.1172V55.4883C30.4488 56.5888 30.1461 56.5888 29.0869 56.649V57.0561H33.8085V56.649L33.7934 56.634Z" fill="#003281"/>
<path d="M51.969 48.7049C52.5743 48.7049 52.8165 49.5491 53.5126 49.5491C54.0121 49.5491 54.4812 49.1722 54.4812 48.5843C54.4812 47.8909 53.7699 47.499 53.0889 47.499C51.6512 47.499 50.6675 48.7502 50.3497 49.3984V47.5744C49.3963 47.906 48.2613 48.3582 47.2775 48.6597V48.8707C48.0948 49.2326 48.352 49.2777 48.352 50.1068V55.4733C48.352 56.5737 48.0494 56.5737 47.0354 56.634V57.0411H51.8782V56.634C50.6826 56.5737 50.3799 56.5737 50.3799 55.4733V51.3882C50.3799 49.6546 51.2577 48.72 51.9539 48.72L51.969 48.7049Z" fill="#003281"/>
<path d="M133.056 57.2671C134.977 57.2671 136.4 56.227 137.111 54.584L136.763 54.4784C136.172 55.5185 135.144 56.4531 133.797 56.4531C131.284 56.4531 130.633 54.2673 130.633 52.3228C130.633 50.6194 131.133 48.1472 133.298 48.1472C134.236 48.1472 135.052 48.7351 135.052 49.6245C135.052 50.1672 135.431 50.6797 135.991 50.6797C136.49 50.6797 136.915 50.3179 136.899 49.8053C136.839 48.4185 135.113 47.6196 133.267 47.6196C130.301 47.6196 128.394 49.7149 128.394 52.5188C128.394 55.1115 130.21 57.237 133.056 57.237V57.2671Z" fill="#003281"/>
<path d="M143.422 56.634C142.438 56.5737 142.135 56.5737 142.135 55.4733V49.8506C142.695 49.2326 143.24 48.509 144.602 48.509C145.964 48.509 146.6 49.5792 146.6 50.9812V55.4582C146.6 56.5586 146.297 56.5586 145.328 56.6189V57.0259H150.004V56.6189C148.975 56.5586 148.673 56.5586 148.673 55.4582V51.1922C148.673 48.1623 146.509 47.6347 145.358 47.6347C143.906 47.6347 143.028 48.298 142.15 49.1421V42.2079C141.152 42.5697 139.896 42.9013 138.881 43.2933V43.4591C139.487 43.5797 140.077 43.7757 140.077 44.4389V55.4582C140.077 56.5586 139.775 56.5586 138.715 56.6189V57.0259H143.437V56.6189L143.422 56.634Z" fill="#003281"/>
<path d="M18.7959 47.5292C17.7365 47.8909 16.4199 48.2678 15.421 48.6446V48.8557C15.7539 48.9009 15.9658 48.916 16.2685 49.0668C16.6922 49.323 16.6922 49.9109 16.6922 50.3632V55.4432C16.6922 56.5436 16.3895 56.5436 15.3302 56.6039V57.0109H20.0973V56.6039C19.1136 56.5436 18.811 56.5436 18.811 55.4432V47.514L18.7959 47.5292Z" fill="#003281"/>
<path d="M17.6307 45.9765C18.2966 45.9765 18.8414 45.4338 18.8414 44.7706C18.8414 44.1073 18.2966 43.5646 17.6307 43.5646C16.9648 43.5646 16.42 44.1073 16.42 44.7706C16.42 45.4338 16.9648 45.9765 17.6307 45.9765Z" fill="#003281"/>
<path d="M40.9516 57.2671C43.1762 57.2671 44.5232 55.7748 44.9923 54.584L44.5989 54.4784C43.9329 55.7145 42.5558 56.4531 41.5569 56.4531C39.075 56.4531 38.2881 54.5387 38.2881 52.3228C38.2881 51.9459 38.3183 51.569 38.3638 51.2224H44.9469C44.8107 48.8406 43.0098 47.6347 40.8608 47.6347C37.9551 47.6347 36.0634 49.8204 36.0634 52.5338C36.0634 55.3979 38.1973 57.252 40.9516 57.252V57.2671ZM40.9213 48.1623C41.8899 48.1623 42.8584 48.9914 42.8584 50.5892H38.5C38.8935 49.0969 39.8166 48.1623 40.9213 48.1623Z" fill="#003281"/>
<path d="M68.4346 49.3833L72.1271 57.2671L71.3859 58.9856C71.1892 59.4227 70.8859 60.0559 70.3259 59.9956C70.0691 59.9805 69.8269 59.8901 69.5696 59.8749C69.0096 59.8901 68.6767 60.2367 68.6767 60.7493C68.6767 61.2015 69.1307 61.5935 69.6448 61.5935C70.977 61.5935 71.5215 60.3422 71.9459 59.3625L76.2129 49.5642C76.5006 48.8858 76.8339 48.2678 77.9539 48.2678V47.8608H74.1094V48.2678C74.5028 48.2678 75.1384 48.2377 75.4116 48.6748C75.6083 48.9914 75.4717 49.5642 75.275 50.0164L73.1561 54.8703L70.8259 49.5038C70.6747 49.1421 70.6893 48.8557 70.7503 48.6899C70.9014 48.2828 71.4004 48.2828 71.8703 48.2828V47.8758H66.9817V48.2828C67.8443 48.2828 68.147 48.7954 68.4346 49.3833Z" fill="#003281"/>
<path d="M83.3865 54.1769C83.3865 55.5336 84.2944 57.2671 86.8978 57.2671C88.1835 57.2671 89.258 56.6189 90.0912 55.7597L90.2724 55.9406C91.0446 56.7396 91.9224 57.252 93.1936 57.252C94.3127 57.252 95.2515 56.2723 95.796 55.4733L95.5393 55.2472C95.0694 55.8803 94.5249 56.0763 93.9803 56.0763C92.9058 56.0763 92.1491 55.5336 91.468 54.7648C91.3624 54.6442 91.2559 54.5236 91.1502 54.3879C91.2258 54.2673 91.2859 54.1468 91.3469 54.0261C91.6037 53.5438 92.0736 52.6242 92.3003 52.0515C92.6636 51.0867 93.2082 50.0767 94.3892 50.0617V49.7149H90.8479V50.0617C91.4525 50.0617 91.8769 50.2576 91.8769 50.9058C91.8769 51.9308 91.3169 52.9709 90.9235 53.6644C90.8925 53.7246 90.8479 53.8 90.7869 53.9056C89.879 52.6996 88.8191 51.0113 88.0934 49.7602C89.1524 49.0064 90.3179 48.1472 90.3935 47.0619C90.4846 45.8107 89.5758 44.9213 87.8967 44.9213C86.2167 44.9213 85.1877 45.9614 85.1877 47.4085C85.1877 47.9663 85.5355 48.8104 85.7777 49.2929C85.8834 49.519 86.0801 49.8807 86.3378 50.3179C85.0511 51.1922 83.4166 52.3378 83.4166 54.1468L83.3865 54.1769ZM87.8967 45.4187C88.5924 45.4187 89.1979 45.8257 89.1069 46.9865C89.0468 47.7251 88.729 48.4035 87.7601 49.2627C87.5789 48.9461 87.4423 48.6748 87.3367 48.4788C86.9579 47.71 86.7466 47.2729 86.7466 46.6096C86.7466 46.1725 87.1855 45.4187 87.8967 45.4187ZM86.6401 50.8907C87.4423 52.2173 88.6079 53.996 89.6669 55.2622C89.0923 55.8049 88.3502 56.2421 87.5033 56.2421C86.3378 56.2421 85.2332 55.3225 85.2332 53.8152C85.2332 52.6695 85.7932 51.7047 86.6401 50.8756V50.8907Z" fill="#003281"/>
</svg>
