<svg width="150" height="79" viewBox="0 0 150 79" fill="none" xmlns="http://www.w3.org/2000/svg">
<path d="M98.9318 27.9958L98.8109 27.356C91.0698 28.7605 83.1186 29.4783 75.0001 29.4783C66.8816 29.4783 58.9296 28.7449 51.1892 27.356L51.0683 27.9958C58.7633 29.7124 66.7758 30.6175 75.0001 30.6175C83.2242 30.6175 91.2217 29.7124 98.9318 27.9802V27.9958Z" fill="white"/>
<path d="M108.91 31.1946L108.789 30.5547C97.8129 32.6615 86.5352 33.7695 74.9846 33.7695C63.4349 33.7695 52.1418 32.6615 41.1964 30.5547L41.0755 31.1946C51.9906 33.629 63.3593 34.9086 75 34.9086C86.6407 34.9086 97.9794 33.629 108.924 31.1946H108.91Z" fill="white"/>
<path d="M89.316 24.9059L89.2105 24.2661C84.5395 24.8748 79.8076 25.1869 74.9847 25.1869C70.1617 25.1869 65.4301 24.8748 60.7587 24.2661L60.6528 24.9059C65.2638 25.8423 70.0717 26.326 74.9692 26.326C79.8676 26.326 84.6605 25.8423 89.286 24.9059H89.316Z" fill="white"/>
<path d="M73.7757 2.80859C70.9486 2.80859 68.6504 5.1026 68.6504 8.80113V21.3946H70.1772V8.81671C70.1772 5.61763 72.052 3.77621 74.3797 3.77621C76.7084 3.77621 78.4922 5.63321 78.4922 8.13004H78.7942C78.7942 5.05584 76.5574 2.80859 73.7603 2.80859H73.7757Z" fill="white"/>
<path d="M73.7757 1.84098C77.1168 1.84098 79.8376 4.3379 79.8376 8.80103V21.3946H81.3648V8.69173C81.3648 3.72926 78.1747 0.842285 74.4861 0.842285C71.8709 0.842285 69.5877 2.356 68.454 4.57198L68.6959 4.71236C69.7697 2.98023 71.659 1.84098 73.8057 1.84098H73.7757Z" fill="white"/>
<path d="M78.9607 71.0044H78.2957L74.8336 75.5924V76.0917H77.8573V78.0736H78.9452V76.0917H80.034V75.3739H78.9452V70.9888L78.9607 71.0044ZM77.8718 75.3895H75.393L77.8718 72.0499V75.3895Z" fill="white"/>
<path d="M86.5799 74.0938C87.2603 73.813 88.0917 73.3604 88.0917 72.5801C88.0917 71.5814 86.8973 71.0977 85.9904 71.0977C84.8415 71.0977 83.6017 71.6594 83.6017 72.8142C83.6017 73.735 84.2066 74.1407 85.008 74.5308C84.1911 74.9677 83.4507 75.4359 83.4507 76.419C83.4507 77.6363 84.5695 78.1669 85.6129 78.1669C87.0938 78.1669 88.3336 77.5114 88.3336 76.1849C88.3336 75.0926 87.5932 74.5464 86.5799 74.1251V74.0938ZM84.5996 72.5177C84.5996 71.7375 85.2045 71.3629 86.0059 71.3629C86.7618 71.3629 87.2903 71.7687 87.2903 72.5177C87.2903 73.2199 86.9728 73.6569 86.3688 74.0158C85.9158 73.6569 84.5996 73.376 84.5996 72.5177ZM85.7484 77.8704C84.8415 77.8704 84.2976 77.2773 84.2976 76.4347C84.2976 75.592 84.5695 75.0926 85.2345 74.6244C86.1114 75.0302 87.2903 75.3267 87.2903 76.4347C87.2903 77.2773 86.6553 77.8704 85.7484 77.8704Z" fill="white"/>
<path d="M63.3743 77.3554V71.0977H63.1929C62.9359 71.3316 62.3009 71.9559 61.1823 72.1588V72.3773C61.8021 72.4241 62.1044 72.4241 62.1951 72.5957C62.2556 72.705 62.2858 72.9078 62.2858 73.2355V77.3554C62.2858 77.7924 62.044 77.8547 61.4846 77.8547V78.0576H64.1302V77.8547C63.5406 77.8547 63.3894 77.7924 63.3894 77.3554H63.3743Z" fill="white"/>
<path d="M68.7867 71.1602C68.5599 71.1602 68.4843 71.1291 68.4843 70.8794H68.3028L67.6225 72.83H67.8645L67.9703 72.5336C68.0459 72.3151 68.1669 72.159 68.3935 72.159H71.326L69.1797 76.6066C68.7867 77.418 68.4994 78.011 68.4994 78.0578C68.4994 78.261 68.8018 78.261 68.953 78.261C69.3762 78.261 69.5422 78.089 69.6632 77.7769L72.0819 71.4724V71.1915H69.6487C69.3762 71.1915 69.089 71.1915 68.8018 71.1758L68.7867 71.1602Z" fill="white"/>
<path d="M66.2619 63.9194H1.52702V64.5592H66.2619V63.9194Z" fill="white"/>
<path d="M150 63.9194H73.3218V64.5592H150V63.9194Z" fill="white"/>
<path d="M55.6036 55.1491C55.6036 58.036 57.6445 60.1271 60.6379 60.1271C63.4195 60.1271 65.6721 58.0048 65.6721 55.1491C65.6721 52.1528 63.6312 50.1709 60.6379 50.1709C57.6445 50.1709 55.6036 52.2621 55.6036 55.1491ZM63.5253 55.1491C63.5253 57.5991 62.5427 59.5966 60.6379 59.5966C58.733 59.5966 57.7503 57.6147 57.7503 55.1491C57.7503 52.6834 58.7481 50.7015 60.6379 50.7015C62.6939 50.7015 63.5253 52.6678 63.5253 55.1491Z" fill="white"/>
<path d="M100.489 44.7401V45.2082C101.426 45.3643 102.227 45.1458 102.227 46.2694V58.4884C102.227 59.3779 101.29 59.3779 100.489 59.4248V59.8929C102.257 59.8929 104.102 59.9866 105.946 59.9866C107.443 59.9866 109.333 59.8773 110.663 59.1438C112.281 58.2699 112.87 57.0839 112.87 55.7418C112.87 53.5727 111.298 52.0121 109.061 51.7469C110.86 51.2475 111.857 50.0771 111.857 48.2824C111.857 47.1121 111.177 45.9105 110.059 45.3799C108.637 44.7245 107.186 44.6776 105.614 44.6932C103.86 44.7245 102.167 44.7245 100.489 44.7401ZM110.436 55.8511C110.436 58.1139 109.152 59.3623 106.46 59.3623C105.311 59.3623 104.541 59.1594 104.541 58.0203V52.4023H105.523C108.123 52.4023 110.436 52.6364 110.436 55.8511ZM109.575 48.4698C109.575 50.8886 107.745 51.7781 105.644 51.7781H104.541V45.3174C104.752 45.3174 105.099 45.3174 105.297 45.3174C108.758 45.3174 109.575 46.7531 109.575 48.4698Z" fill="white"/>
<path d="M120.596 60.1271C123.377 60.1271 125.63 58.0048 125.63 55.1491C125.63 52.1528 123.589 50.1709 120.596 50.1709C117.602 50.1709 115.561 52.2621 115.561 55.1491C115.561 58.036 117.602 60.1271 120.596 60.1271ZM120.596 50.7015C122.652 50.7015 123.498 52.6678 123.498 55.1491C123.498 57.6303 122.515 59.5966 120.596 59.5966C118.676 59.5966 117.708 57.6147 117.708 55.1491C117.708 52.6834 118.706 50.7015 120.596 50.7015Z" fill="white"/>
<path d="M7.45314 60.1896H8.22415L12.7595 48.0329C13.2887 46.5972 13.8329 45.2084 15.4051 45.2084V44.7402H10.4616V45.2084C10.9907 45.2084 11.7164 45.1615 12.0943 45.895C12.306 46.2851 12.2455 47.1279 11.6862 48.6727L8.7079 56.9749H8.6626L4.98892 47.4556C4.94353 47.3307 4.67146 46.5348 4.77725 46.0979C4.92843 45.4112 5.72965 45.224 6.51585 45.224V44.7558H0V45.224C0.438447 45.224 1.07337 45.38 1.48153 45.7858C1.88978 46.1915 2.19214 47.003 2.69099 48.2203L7.45314 60.2051V60.1896Z" fill="white"/>
<path d="M27.0309 59.4719C26.0483 59.4095 25.7459 59.4095 25.7459 58.2703V44.5532C24.7179 44.8652 23.4329 45.3022 22.3444 45.5675V45.8329C22.8281 45.8484 23.1456 45.9889 23.3573 46.1606C23.6898 46.4727 23.6898 47.0032 23.6898 47.5494V58.2859C23.6898 59.4252 23.3875 59.4252 22.3293 59.4875V59.9089H27.046V59.4875L27.0309 59.4719Z" fill="white"/>
<path d="M33.7582 59.4719C32.7755 59.4095 32.4732 59.4095 32.4732 58.2703V44.5532C31.4452 44.8652 30.1601 45.3022 29.0717 45.5675V45.8329C29.5705 45.8484 29.8729 45.9889 30.0845 46.1606C30.4171 46.4727 30.4171 47.0032 30.4171 47.5494V58.2859C30.4171 59.4252 30.1147 59.4252 29.0565 59.4875V59.9089H33.7733V59.4875L33.7582 59.4719Z" fill="white"/>
<path d="M51.9149 51.2631C52.5196 51.2631 52.7615 52.137 53.4569 52.137C53.9558 52.137 54.4245 51.7469 54.4245 51.1382C54.4245 50.4204 53.7139 50.0146 53.0336 50.0146C51.5974 50.0146 50.6147 51.31 50.2972 51.981V50.0927C49.3448 50.4361 48.211 50.9041 47.2283 51.2162V51.4348C48.0447 51.8093 48.3017 51.8561 48.3017 52.7144V58.2699C48.3017 59.4091 47.9993 59.4091 46.9864 59.4715V59.8929H51.8242V59.4715C50.6298 59.4091 50.3274 59.4091 50.3274 58.2699V54.0409C50.3274 52.2462 51.2043 51.2787 51.8998 51.2787L51.9149 51.2631Z" fill="white"/>
<path d="M132.917 60.1271C134.836 60.1271 136.258 59.0503 136.968 57.3494L136.62 57.2401C136.031 58.3169 135.003 59.2844 133.657 59.2844C131.148 59.2844 130.497 57.0216 130.497 55.0085C130.497 53.2451 130.997 50.6859 133.159 50.6859C134.096 50.6859 134.912 51.2944 134.912 52.2152C134.912 52.7769 135.29 53.3076 135.85 53.3076C136.348 53.3076 136.772 52.933 136.757 52.4024C136.697 50.9667 134.973 50.1396 133.128 50.1396C130.165 50.1396 128.26 52.3088 128.26 55.2114C128.26 57.8955 130.074 60.0959 132.917 60.0959V60.1271Z" fill="white"/>
<path d="M143.272 59.472C142.29 59.4095 141.987 59.4095 141.987 58.2704V52.4496C142.546 51.8098 143.091 51.0606 144.451 51.0606C145.812 51.0606 146.447 52.1686 146.447 53.62V58.2548C146.447 59.394 146.145 59.3939 145.177 59.4564V59.8777H149.848V59.4564C148.82 59.3939 148.518 59.394 148.518 58.2548V53.8384C148.518 50.7018 146.356 50.1556 145.207 50.1556C143.756 50.1556 142.879 50.8422 142.002 51.7162V44.5376C141.005 44.9122 139.75 45.2554 138.737 45.6612V45.8329C139.342 45.9577 139.931 46.1606 139.931 46.8472V58.2548C139.931 59.394 139.629 59.3939 138.57 59.4564V59.8777H143.288V59.4564L143.272 59.472Z" fill="white"/>
<path d="M18.7763 50.046C17.718 50.4204 16.4027 50.8106 15.405 51.2007V51.4192C15.7375 51.466 15.9492 51.4817 16.2516 51.6377C16.6748 51.903 16.6748 52.5116 16.6748 52.9798V58.2388C16.6748 59.378 16.3725 59.378 15.3143 59.4404V59.8617H20.0763V59.4404C19.0937 59.378 18.7914 59.378 18.7914 58.2388V50.0303L18.7763 50.046Z" fill="white"/>
<path d="M17.6123 48.4387C18.2775 48.4387 18.8218 47.8769 18.8218 47.1904C18.8218 46.5037 18.2775 45.9419 17.6123 45.9419C16.9471 45.9419 16.4028 46.5037 16.4028 47.1904C16.4028 47.8769 16.9471 48.4387 17.6123 48.4387Z" fill="white"/>
<path d="M40.9089 60.1271C43.1313 60.1271 44.4768 58.5822 44.9455 57.3494L44.5524 57.2401C43.8872 58.5198 42.5114 59.2845 41.5137 59.2845C39.0343 59.2845 38.2482 57.3026 38.2482 55.0086C38.2482 54.6184 38.2784 54.2283 38.3238 53.8694H44.9001C44.764 51.4037 42.965 50.1553 40.8182 50.1553C37.9156 50.1553 36.0259 52.418 36.0259 55.227C36.0259 58.192 38.1575 60.1115 40.9089 60.1115V60.1271ZM40.8787 50.7015C41.8463 50.7015 42.8138 51.5598 42.8138 53.2139H38.4599C38.853 51.669 39.7751 50.7015 40.8787 50.7015Z" fill="white"/>
<path d="M68.3633 51.9658L72.0519 60.1274L71.3115 61.9065C71.115 62.3589 70.8121 63.0144 70.2527 62.952C69.9962 62.9364 69.7542 62.8428 69.4971 62.8271C68.9377 62.8428 68.6051 63.2017 68.6051 63.7323C68.6051 64.2005 69.0587 64.6062 69.5723 64.6062C70.9031 64.6062 71.447 63.3109 71.8709 62.2966L76.1335 52.153C76.421 51.4508 76.7539 50.811 77.8727 50.811V50.3896H74.0322V50.811C74.4252 50.811 75.0601 50.7798 75.333 51.2324C75.5295 51.5601 75.3931 52.153 75.1966 52.6212L73.0798 57.6461L70.7521 52.0906C70.6011 51.7161 70.6156 51.4196 70.6766 51.248C70.8276 50.8266 71.326 50.8266 71.7954 50.8266V50.4052H66.9119V50.8266C67.7736 50.8266 68.076 51.3572 68.3633 51.9658Z" fill="white"/>
<path d="M83.2997 56.9279C83.2997 58.3324 84.2066 60.1269 86.8072 60.1269C88.0917 60.1269 89.165 59.456 89.9974 58.5665L90.1784 58.7537C90.9497 59.5808 91.8266 60.1114 93.0965 60.1114C94.2144 60.1114 95.1523 59.0971 95.6963 58.2699L95.4397 58.0358C94.9704 58.6913 94.4264 58.8942 93.8824 58.8942C92.8091 58.8942 92.0531 58.3324 91.3727 57.5365C91.2672 57.4116 91.1608 57.2868 91.0553 57.1464C91.1308 57.0215 91.1908 56.8967 91.2517 56.7718C91.5083 56.2725 91.9776 55.3205 92.2041 54.7276C92.5671 53.7288 93.1111 52.6832 94.2909 52.6676V52.3087H90.7533V52.6676C91.3573 52.6676 91.7812 52.8705 91.7812 53.5415C91.7812 54.6027 91.2217 55.6794 90.8288 56.3973C90.7978 56.4597 90.7533 56.5377 90.6923 56.647C89.7854 55.3986 88.7266 53.6507 88.0016 52.3555C89.0595 51.5752 90.2239 50.6857 90.2994 49.5622C90.3903 48.2669 89.4825 47.3462 87.8051 47.3462C86.1268 47.3462 85.0989 48.4229 85.0989 49.921C85.0989 50.4984 85.4464 51.3723 85.6884 51.8718C85.7939 52.1059 85.9904 52.4803 86.2478 52.9329C84.9625 53.838 83.3297 55.024 83.3297 56.8967L83.2997 56.9279ZM87.8051 47.8611C88.5001 47.8611 89.105 48.2824 89.014 49.4841C88.954 50.2487 88.6365 50.951 87.6687 51.8405C87.4877 51.5128 87.3512 51.232 87.2457 51.029C86.8673 50.2332 86.6562 49.7806 86.6562 49.094C86.6562 48.6414 87.0947 47.8611 87.8051 47.8611ZM86.5498 53.5259C87.3512 54.8992 88.5156 56.7406 89.5735 58.0514C88.9995 58.6132 88.2581 59.0658 87.4122 59.0658C86.2478 59.0658 85.1444 58.1139 85.1444 56.5534C85.1444 55.3674 85.7038 54.3686 86.5498 53.5103V53.5259Z" fill="white"/>
</svg>
